<?xml version="1.0" standalone="no"?>
<!DOCTYPE svg PUBLIC "-//W3C//DTD SVG 20010904//EN"
 "http://www.w3.org/TR/2001/REC-SVG-20010904/DTD/svg10.dtd">
<svg version="1.0" xmlns="http://www.w3.org/2000/svg"
 width="1200.000000pt" height="1200.000000pt" viewBox="0 0 1200.000000 1200.000000"
 preserveAspectRatio="xMidYMid meet">

<g transform="translate(0.000000,1200.000000) scale(0.100000,-0.100000)"
fill="#000000" stroke="none">
<path d="M0 6000 l0 -6000 6000 0 6000 0 0 6000 0 6000 -6000 0 -6000 0 0
-6000z m6885 1389 c25 -7 58 -29 86 -58 79 -78 88 -172 29 -276 -28 -49 -29
-53 -11 -58 18 -4 63 -132 156 -442 15 -49 40 -128 55 -175 16 -47 51 -157 78
-245 121 -386 145 -455 163 -471 10 -9 19 -29 19 -44 0 -15 7 -46 15 -69 8
-22 11 -41 8 -41 -4 0 8 -14 25 -31 44 -44 48 -119 6 -156 -13 -12 -24 -28
-24 -34 0 -7 -3 -10 -6 -6 -4 3 -12 0 -20 -7 -15 -15 -84 -19 -84 -5 0 5 -6 9
-14 9 -8 0 -22 7 -30 16 -9 8 -16 12 -16 8 0 -4 -9 5 -20 18 -22 28 -31 89
-13 95 23 8 -1 46 -41 64 -96 44 -206 7 -206 -69 0 -32 53 -68 142 -97 146
-49 187 -74 220 -139 15 -30 19 -53 16 -97 -5 -76 -38 -125 -109 -163 -106
-58 -282 -42 -388 34 -24 18 -44 30 -46 28 -11 -12 -105 -197 -105 -207 0 -7
11 -27 24 -44 80 -106 34 -251 -93 -295 -68 -24 -136 -7 -191 48 -66 66 -74
164 -19 241 10 15 19 31 19 37 0 20 -208 428 -236 463 -6 8 -14 27 -18 42 -4
15 -11 25 -16 22 -5 -3 -7 1 -4 9 5 13 -101 226 -113 226 -3 0 -30 -21 -59
-46 l-54 -45 -2 -267 -3 -267 -59 -3 c-65 -3 -76 4 -76 51 0 33 -10 34 -36 6
-33 -37 -113 -69 -174 -68 -165 1 -270 121 -239 272 9 42 21 61 59 98 60 59
114 77 251 85 94 6 106 9 93 22 -8 8 -26 36 -39 63 -37 71 -62 84 -133 70 -31
-6 -75 -20 -97 -31 -38 -19 -41 -19 -53 -3 -7 10 -18 35 -24 56 -9 31 -9 40 3
51 18 18 123 56 153 56 12 0 25 3 28 6 8 7 -125 283 -150 311 -10 12 -37 27
-59 33 -35 11 -46 10 -73 -4 -18 -9 -34 -16 -35 -16 -1 0 0 25 3 55 4 50 3 55
-16 55 -40 0 -108 32 -144 67 -71 69 -85 158 -40 251 11 23 16 42 11 42 -4 0
-30 -21 -56 -47 -36 -35 -135 -193 -371 -586 l-323 -539 74 -171 74 -172 -69
-8 c-43 -5 -74 -4 -82 2 -6 5 -29 50 -50 101 -22 50 -44 89 -50 87 -6 -2 -33
-44 -61 -95 l-50 -91 -57 -1 c-32 0 -58 2 -58 4 0 2 38 79 85 171 l84 167 -15
37 c-9 20 -40 95 -69 166 -78 190 -95 228 -100 224 -4 -4 -113 -262 -257 -609
-33 -80 -67 -151 -76 -157 -15 -13 -133 -18 -144 -8 -3 4 48 131 114 283 66
152 160 369 209 482 l88 205 69 3 68 3 98 -228 c54 -125 102 -232 106 -236 4
-5 47 58 95 140 339 573 544 910 578 949 54 61 106 86 192 92 67 4 83 0 398
-102 181 -59 390 -127 465 -150 l137 -44 39 45 c45 52 104 82 158 83 30 0 38
4 46 28 15 40 111 274 122 297 5 11 29 74 54 140 l44 120 -29 41 c-63 92 -60
194 9 274 61 72 142 95 237 69z m903 -1535 c31 -36 29 -79 -7 -115 -37 -37
-79 -38 -120 -3 -23 19 -31 34 -31 58 0 86 101 125 158 60z m-2633 -251 c46
-24 75 -53 101 -103 17 -32 19 -61 19 -320 l0 -285 -64 -3 c-37 -2 -69 2 -75
8 -7 7 -13 100 -16 265 l-5 255 -33 32 c-30 30 -37 33 -96 33 -76 0 -108 -18
-146 -86 -24 -43 -25 -50 -28 -269 -3 -157 -7 -227 -15 -232 -7 -4 -38 -8 -70
-8 -51 0 -59 3 -66 23 -12 31 -12 667 0 689 7 14 22 18 63 18 60 0 71 -8 81
-63 l8 -39 36 36 c58 57 114 77 196 73 45 -2 84 -11 110 -24z m3205 -2 c30
-12 68 -32 84 -45 l29 -24 -32 -56 -32 -56 -32 24 c-72 53 -170 71 -226 41
-47 -24 -56 -78 -18 -113 12 -11 63 -35 112 -53 188 -66 235 -112 235 -230 0
-64 -18 -107 -63 -146 -84 -74 -244 -84 -374 -24 -37 18 -78 42 -90 53 -25 23
-22 34 24 96 l24 32 29 -20 c120 -85 267 -94 294 -18 17 49 -4 73 -96 107
-191 71 -247 113 -267 201 -15 66 10 151 55 191 25 22 82 50 119 60 50 13 166
3 225 -20z m-572 -340 c2 -245 -1 -348 -9 -357 -7 -8 -31 -14 -59 -14 -87 0
-80 -32 -80 367 l0 354 73 -3 72 -3 3 -344z"/>
<path d="M6832 6860 c-10 -11 -42 -73 -70 -137 -28 -65 -77 -176 -108 -247
l-57 -129 23 -64 c26 -73 22 -112 -17 -185 -19 -34 -23 -51 -15 -60 5 -7 26
-58 45 -113 155 -441 170 -474 223 -489 18 -5 24 2 46 52 28 66 73 107 140
126 l42 13 -3 51 c-1 31 4 62 13 80 19 36 71 82 94 82 42 1 44 13 18 96 -14
43 -26 86 -26 94 0 8 -7 28 -15 43 -16 30 -56 159 -61 192 -1 11 -3 20 -4 20
-1 0 -3 9 -5 21 -3 12 -14 42 -25 68 -11 26 -20 55 -20 65 0 9 -4 21 -10 27
-5 5 -14 30 -19 54 -12 63 -15 74 -22 80 -17 14 -65 200 -60 230 2 8 0 12 -4
9 -3 -4 -17 4 -30 17 -29 29 -48 30 -73 4z"/>
<path d="M5548 6273 l-5 -68 142 -290 c140 -287 142 -290 191 -321 l49 -30 85
72 c112 94 129 114 184 209 48 83 53 103 35 137 -8 16 -8 30 1 58 18 54 -5 93
-67 114 -195 68 -569 186 -588 186 -21 0 -23 -5 -27 -67z"/>
<path d="M6397 5958 c-39 -75 -137 -323 -137 -344 0 -13 8 -29 18 -36 9 -7 18
-20 20 -28 2 -8 11 -22 20 -30 10 -8 16 -25 14 -39 -3 -15 0 -21 8 -16 7 4 10
2 8 -6 -1 -8 -1 -14 2 -14 12 0 38 -31 33 -39 -3 -4 -9 -2 -14 5 -5 8 -9 10
-9 4 0 -5 5 -17 10 -25 9 -13 11 -13 20 0 5 8 10 10 10 4 0 -5 -5 -15 -12 -22
-8 -8 -5 -20 13 -49 14 -21 33 -59 43 -85 10 -26 22 -50 27 -53 5 -4 9 -15 9
-26 0 -10 4 -19 8 -19 5 0 9 -6 9 -12 0 -11 128 -276 138 -286 5 -6 225 403
225 419 0 4 -17 10 -37 14 -52 9 -100 41 -128 84 -13 20 -49 108 -80 196 -157
447 -152 435 -180 435 -15 0 -27 -11 -38 -32z m-27 -475 c0 -13 -19 -19 -21
-5 0 4 -2 18 -5 32 -4 24 -3 24 11 6 8 -11 15 -26 15 -33z"/>
<path d="M5634 5204 c-91 -44 -80 -173 16 -193 99 -20 183 34 200 130 14 75
10 79 -94 79 -60 0 -101 -5 -122 -16z"/>
<path d="M6952 5132 c-24 -48 -35 -76 -24 -64 l18 24 49 -31 c82 -52 176 -66
234 -36 49 25 49 89 1 115 -23 13 -216 80 -227 80 -4 0 -27 -40 -51 -88z"/>
</g>
</svg>
